<?xml version="1.0" encoding="utf-8"?>
<!-- Generator: Adobe Illustrator 16.0.0, SVG Export Plug-In . SVG Version: 6.00 Build 0)  -->
<!DOCTYPE svg PUBLIC "-//W3C//DTD SVG 1.0//EN" "http://www.w3.org/TR/2001/REC-SVG-20010904/DTD/svg10.dtd">
<svg version="1.0" id="Ebene_1" xmlns="http://www.w3.org/2000/svg" xmlns:xlink="http://www.w3.org/1999/xlink" x="0px" y="0px"
	 width="151px" height="43.557px" viewBox="0 -0.234 151 43.557" enable-background="new 0 -0.234 151 43.557" xml:space="preserve"
	>
<g>
	<g>
		<g>
			<path fill-rule="evenodd" clip-rule="evenodd" fill="#FFDC00" d="M45.377,0.333l0.277,0.14l4.012,12.586l-1.66,10.927
				L44.133,39.34l-2.075,0.276c-0.692-3.044-1.245-7.195-3.043-9.959c0-2.489,0.691-4.149,0.414-6.085l1.521-3.458
				c0-0.416-0.137-0.553-0.413-0.831l-10.929,6.225c-2.353,3.183-6.78,4.149-10.238,6.639c-4.981,2.351-9.27,4.705-14.25,7.055
				c-1.383,1.245-1.935,1.382-3.043,2.35c-0.413,0-0.967,0-1.383,0C0,40.998,0,40.03,0,39.201l1.937-1.247
				c0.417-0.827,0.692-1.796,0.417-2.905l4.01-6.358L8.3,27.582c0.693-1.246,2.216-2.488,3.875-3.319
				c0.415-0.276,0.69-0.69,1.106-1.245l7.332-4.148l3.875-3.319c1.382,0.275,1.382-1.245,2.627-1.384
				c0.417,0.139,0.692,0.277,1.108,0L44.133,2.272l0.691-1.798L45.377,0.333L45.377,0.333z"/>
			<path fill-rule="evenodd" clip-rule="evenodd" fill="#FFDC00" d="M97.395-0.218h2.766c0.416,0,1.522,0.552,0.831,1.105
				l-2.353,1.247c-0.554,0.552-0.413,1.936-0.413,2.902c-0.831,1.663-2.767,2.354-3.737,4.565c0,0.278,0,0.832,0,1.521
				c0,0.969-1.658,0.969-2.352,1.8L72.631,26.476c-1.246-0.275-1.521,0.968-2.075,1.661l-6.363,4.426l-8.025,5.255
				c-0.137,0.137-0.552,0.83-0.552,1.659c-0.138,0.278-0.969,0.278-1.523,0c-0.553-4.147-2.074-7.606-3.458-12.033
				c-0.276-4.565,1.799-8.713,1.799-12.862c0.276-0.415,0.552-0.415,0.969-0.967l2.213-13.28h3.182c1.107,0.279,0,1.386,0.138,2.214
				c0.554,0.415,0.417,1.247,0.276,2.076c3.46,4.839,2.215,10.927,0.553,16.735c1.662,0.969,3.458-0.969,4.428-2.351l2.074-1.107
				l5.396-3.319C75.814,9.601,83.422,7.39,89.37,3.794c3.044-1.109,5.118-2.075,7.193-3.321C96.841,0.474,96.702-0.357,97.395-0.218
				L97.395-0.218z"/>
		</g>
		<g>
			<path fill="#FFFFFF" d="M73.854,38.342l0.689-1.854c1.091,0.714,1.971,1.071,2.637,1.071c1.208,0,1.812-0.508,1.812-1.523
				c0-0.727-0.584-1.351-1.751-1.874c-0.898-0.41-1.504-0.724-1.817-0.935c-0.312-0.213-0.584-0.454-0.812-0.726
				c-0.231-0.272-0.402-0.562-0.516-0.865c-0.113-0.305-0.17-0.633-0.17-0.984c0-0.905,0.329-1.612,0.989-2.12
				c0.658-0.507,1.52-0.762,2.583-0.762c0.804,0,1.815,0.255,3.038,0.762l-0.557,1.811c-0.775-0.615-1.555-0.923-2.337-0.923
				c-0.468,0-0.86,0.106-1.179,0.327c-0.319,0.221-0.479,0.497-0.479,0.834c0,0.706,0.401,1.242,1.204,1.605l1.4,0.639
				c0.859,0.391,1.484,0.837,1.875,1.337c0.39,0.502,0.586,1.131,0.586,1.885c0,0.988-0.347,1.763-1.039,2.321
				c-0.693,0.56-1.655,0.84-2.884,0.84C75.968,39.207,74.877,38.917,73.854,38.342z"/>
			<path fill="#FFFFFF" d="M83.811,29.52h-1.275v-1.544h1.275V25.67l1.955-0.752v3.058h3.029v1.544h-3.029v5.476
				c0,0.927,0.158,1.586,0.47,1.977c0.312,0.392,0.815,0.587,1.508,0.587c0.501,0,1.02-0.127,1.554-0.38l0.29,1.719
				c-0.812,0.205-1.698,0.31-2.667,0.31c-0.871,0-1.607-0.324-2.208-0.974c-0.601-0.648-0.901-1.467-0.901-2.454V29.52z"/>
			<path fill="#FFFFFF" d="M93.324,27.976v7.032c0,1.7,0.737,2.551,2.213,2.551c0.645,0,1.236-0.185,1.771-0.556
				c0.537-0.371,0.889-0.8,1.062-1.286v-7.741h1.956V39h-1.956v-1.523c-0.221,0.432-0.661,0.828-1.324,1.189
				c-0.662,0.36-1.309,0.541-1.939,0.541c-1.209,0-2.134-0.349-2.775-1.041s-0.962-1.679-0.962-2.953v-7.237H93.324z"/>
			<path fill="#FFFFFF" d="M115.759,39v-6.979c0-1.736-0.753-2.602-2.256-2.602c-0.473,0-0.916,0.144-1.328,0.436
				c-0.411,0.291-0.694,0.621-0.845,0.993V39h-1.956v-7.833c0-0.542-0.202-0.97-0.611-1.281c-0.409-0.312-0.95-0.467-1.622-0.467
				c-0.392,0-0.808,0.15-1.252,0.451c-0.441,0.302-0.757,0.634-0.941,0.999V39h-1.956V27.976h1.276l0.648,1.277
				c0.756-0.99,1.699-1.483,2.832-1.483c1.579,0,2.684,0.492,3.315,1.472c0.22-0.417,0.628-0.769,1.224-1.05
				c0.599-0.28,1.213-0.422,1.844-0.422c1.14,0,2.022,0.339,2.646,1.015c0.625,0.675,0.936,1.623,0.936,2.846V39H115.759z"/>
			<path fill="#FFFFFF" d="M122.449,38.393v4.931h-1.956V27.976h1.956v0.907c0.74-0.742,1.639-1.113,2.688-1.113
				c1.565,0,2.782,0.487,3.654,1.461c0.872,0.976,1.308,2.404,1.308,4.283c0,1.674-0.44,3.041-1.318,4.103
				c-0.878,1.06-2.146,1.591-3.809,1.591c-0.468,0-0.967-0.083-1.498-0.249C122.942,38.795,122.602,38.605,122.449,38.393z
				 M122.449,30.354v6.423c0.124,0.187,0.385,0.362,0.782,0.53c0.399,0.168,0.786,0.252,1.165,0.252c2.43,0,3.646-1.373,3.646-4.116
				c0-1.393-0.289-2.412-0.865-3.058c-0.578-0.645-1.501-0.966-2.771-0.966c-0.274,0-0.61,0.094-1.009,0.285
				C122.999,29.898,122.684,30.114,122.449,30.354z"/>
			<path fill="#FFFFFF" d="M138.201,25.207c-0.396-0.139-0.768-0.205-1.109-0.205c-0.599,0-1.09,0.226-1.478,0.679
				c-0.389,0.452-0.582,1.024-0.582,1.719c0,0.185,0.015,0.378,0.051,0.576h2.244v1.648h-2.244V39h-1.957v-9.376h-1.605v-1.648
				h1.605c0-1.407,0.347-2.513,1.041-3.315s1.609-1.203,2.747-1.203c0.57,0,1.183,0.103,1.835,0.309L138.201,25.207z"/>
			<path fill="#FFFFFF" d="M140.189,35.882V23.457h1.957v12.094c0,0.592,0.169,1.056,0.509,1.396
				c0.34,0.341,0.785,0.511,1.333,0.511v1.75C141.457,39.207,140.189,38.098,140.189,35.882z"/>
		</g>
	</g>
	<g>
		<g>
			<path fill="#FFFFFF" d="M148.334,28.041l-0.907-1.461c-0.103,0-0.267-0.006-0.493-0.022v1.483h-0.461V24.64
				c0.015,0,0.135-0.005,0.358-0.017c0.224-0.01,0.388-0.018,0.488-0.018c0.817,0,1.226,0.326,1.226,0.976
				c0,0.213-0.065,0.405-0.196,0.576c-0.133,0.171-0.288,0.277-0.47,0.32l0.988,1.563H148.334z M146.934,25.06v1.104
				c0.113,0.015,0.221,0.022,0.324,0.022c0.28,0,0.483-0.043,0.609-0.133c0.129-0.091,0.191-0.252,0.191-0.482
				c0-0.189-0.067-0.326-0.205-0.409c-0.135-0.084-0.351-0.125-0.645-0.125C147.162,25.036,147.072,25.043,146.934,25.06z"/>
		</g>
		<circle fill="none" stroke="#FFFFFF" stroke-width="0.2753" stroke-miterlimit="2.4142" cx="147.384" cy="26.225" r="2.796"/>
	</g>
</g>
</svg>
