<svg role="img" aria-label="OptiTrack Logo" xmlns="http://www.w3.org/2000/svg" width="186.09" height="37.48" viewBox="0 0 186.09 37.48">
  <path fill="currentColor" d="M66.16,24a1.77,1.77,0,0,1-2-2V12.59h6.18V7.41H64.17V0L58.59,1.52V7.41H54.12v5.18h4.47v9.85c0,4,2.83,6.7,7,6.7A19.48,19.48,0,0,0,71,28.3l-1.36-5A11.35,11.35,0,0,1,66.16,24ZM73.86,0h5.58V5.6H73.86ZM14.56.05A14.56,14.56,0,1,0,29.12,14.61,14.57,14.57,0,0,0,14.56.05Zm0,23.64a9,9,0,1,1,9-9A9,9,0,0,1,14.56,23.69Zm142.93-3.61a5.52,5.52,0,0,1-5.39,3.41,5.53,5.53,0,1,1,5.29-7.87l5.51-1.54A11.21,11.21,0,0,0,157.42,8a11.07,11.07,0,0,0-5.57-1.18,11.16,11.16,0,0,0,.55,22.31,11,11,0,0,0,4.43-.92,11.16,11.16,0,0,0,6.24-6.81ZM133.33,8.77a9.09,9.09,0,0,0-5.58-2,11.16,11.16,0,1,0,0,22.32,9,9,0,0,0,5.58-1.95v1.35h5.58V7.39h-5.58Zm-5.58,14.75A5.56,5.56,0,1,1,133.31,18,5.56,5.56,0,0,1,127.75,23.52Zm-12.42-10.9a5.92,5.92,0,0,0-1.46-.19A5.55,5.55,0,0,0,108.33,18V28.52h-5.58V7.39h5.58V8.76a9,9,0,0,1,5.54-2,11.32,11.32,0,0,1,2.93.39Zm58.39,7.86-3.16,3.39v4.66H165V0h5.6V15.74l7.72-8.34H186l-8.34,8.88,8.44,12.25h-7ZM42.69,6.8a8.84,8.84,0,0,0-5.58,2V7.4H31.53V37.48h5.58V27.17a8.51,8.51,0,0,0,5.58,1.95,11.16,11.16,0,1,0,0-22.32Zm0,16.73A5.57,5.57,0,1,1,48.26,18,5.57,5.57,0,0,1,42.69,23.53ZM81.89,0V5.6h7.44V28.53h5.6V5.6h7.82L104.28,0Zm-8,7.4h5.58V28.53H73.86Z"/>
</svg>
